<?xml version="1.0" standalone="no"?>
<!DOCTYPE svg PUBLIC "-//W3C//DTD SVG 20010904//EN"
 "http://www.w3.org/TR/2001/REC-SVG-20010904/DTD/svg10.dtd">
<svg version="1.0" xmlns="http://www.w3.org/2000/svg"
 width="512.000000pt" height="512.000000pt" viewBox="0 0 512.000000 512.000000"
 preserveAspectRatio="xMidYMid meet">
<metadata>
Created by potrace 1.14, written by Peter Selinger 2001-2017
</metadata>
<g transform="translate(0.000000,512.000000) scale(0.100000,-0.100000)"
fill="#000000" stroke="none">
<path d="M2504 4152 c-22 -14 -41 -25 -44 -24 -3 0 -15 -8 -27 -18 -13 -11
-23 -17 -23 -13 0 3 -10 -3 -22 -14 -13 -11 -48 -34 -78 -52 -62 -36 -89 -52
-104 -64 -37 -28 -116 -75 -116 -69 -1 4 -10 -4 -20 -17 -11 -13 -20 -20 -20
-17 0 4 -15 -4 -33 -18 -19 -14 -37 -23 -40 -20 -4 4 -9 -1 -13 -10 -3 -9 -13
-16 -20 -16 -8 0 -17 -7 -20 -15 -4 -8 -10 -13 -14 -10 -5 3 -11 1 -15 -5 -4
-6 -11 -8 -16 -5 -5 4 -9 2 -9 -4 0 -8 -72 -56 -131 -86 -10 -5 -19 -13 -19
-17 0 -5 -5 -8 -12 -8 -13 0 -91 -51 -96 -63 -2 -4 -8 -5 -13 -1 -5 3 -9 1 -9
-4 0 -5 -13 -15 -29 -22 -16 -6 -37 -20 -47 -31 -9 -10 -25 -19 -35 -19 -10 0
-22 -6 -26 -13 -4 -7 -30 -26 -58 -42 -27 -15 -52 -31 -55 -35 -3 -3 -13 -9
-23 -13 -10 -4 -16 -11 -13 -16 3 -5 -7 -11 -23 -14 -16 -3 -36 -13 -44 -22
-9 -8 -19 -15 -23 -15 -4 0 -15 -6 -23 -14 -9 -8 -22 -16 -30 -18 -8 -2 -22
-10 -32 -18 -38 -32 -46 -38 -67 -44 -12 -4 -28 -13 -34 -19 -18 -17 -66 -48
-73 -46 -4 0 -26 -16 -50 -35 -24 -20 -48 -36 -54 -36 -17 0 -20 -31 -19 -197
1 -162 1 -163 23 -163 12 0 28 7 35 15 6 8 20 17 31 20 10 4 45 24 76 45 57
38 57 38 68 17 8 -15 9 -28 2 -42 -7 -13 -6 -20 2 -23 6 -2 9 -8 6 -12 -9 -14
35 -33 74 -32 173 2 208 3 220 11 11 7 14 44 14 175 0 104 4 163 10 159 5 -3
12 -1 16 4 3 5 35 27 71 49 36 21 67 42 68 47 2 4 10 7 18 7 8 0 14 5 14 10 0
6 7 10 15 10 8 0 15 4 15 10 0 5 3 9 8 8 9 -3 65 33 75 49 4 7 14 13 21 13 7
0 32 14 54 30 23 17 47 30 53 30 6 0 30 16 53 35 24 19 46 35 51 35 4 0 37 20
74 44 36 24 79 50 96 58 16 7 37 20 47 28 35 31 53 45 58 45 3 0 23 11 45 24
22 14 43 24 48 23 4 -1 7 2 7 8 0 5 7 10 15 10 8 0 15 7 15 15 0 9 6 15 13 13
6 -2 27 8 45 20 17 13 32 20 32 15 0 -4 6 -1 13 7 17 22 108 80 125 80 8 0 27
-9 43 -21 16 -11 29 -18 29 -14 0 3 6 1 13 -5 29 -25 145 -101 175 -115 18 -9
35 -22 39 -30 3 -8 11 -15 19 -15 8 0 14 -5 14 -11 0 -5 5 -7 10 -4 6 3 10 2
10 -4 0 -6 11 -13 25 -17 14 -3 25 -10 25 -15 0 -5 3 -8 8 -7 9 3 86 -43 90
-54 2 -4 9 -8 14 -8 6 0 35 -18 63 -39 29 -22 55 -37 59 -34 3 4 6 1 6 -5 0
-7 3 -11 8 -10 4 2 28 -12 54 -30 26 -17 49 -32 52 -32 4 0 25 -13 48 -30 22
-16 47 -30 54 -30 7 0 14 -3 16 -8 3 -8 113 -82 122 -82 6 0 36 -23 61 -47 7
-7 16 -9 20 -5 3 4 11 -1 16 -11 6 -9 17 -17 24 -17 8 0 15 -5 15 -11 0 -5 4
-8 8 -5 12 7 37 -26 38 -52 0 -12 -2 -22 -5 -22 -4 0 -6 -58 -6 -130 0 -71 -3
-130 -8 -130 -4 0 -3 -9 3 -19 5 -11 6 -22 2 -25 -10 -6 -9 -92 1 -102 4 -4 2
-13 -4 -21 -9 -10 -8 -13 1 -13 10 0 10 -3 1 -14 -9 -10 -9 -16 -1 -21 8 -5 8
-10 0 -20 -8 -10 -8 -15 0 -20 8 -5 8 -11 -1 -21 -9 -11 -9 -14 0 -14 8 0 9
-5 1 -19 -7 -13 -7 -22 0 -26 6 -4 7 -13 1 -23 -6 -11 -6 -24 0 -35 7 -12 6
-17 -3 -17 -9 0 -9 -3 -2 -8 12 -8 13 -239 2 -258 -4 -6 -4 -14 -1 -18 10 -10
10 -376 0 -376 -4 0 -3 -9 3 -19 7 -13 7 -22 0 -26 -7 -4 -7 -13 0 -26 6 -10
8 -19 4 -19 -3 0 -1 -7 6 -15 7 -8 8 -15 3 -15 -6 0 -9 -35 -9 -81 1 -44 -2
-86 -6 -92 -5 -9 -90 -12 -321 -13 -172 0 -325 -4 -340 -8 -17 -4 -27 -2 -27
4 0 6 -4 9 -9 6 -5 -3 -25 12 -45 34 -20 22 -40 40 -46 40 -5 0 -10 4 -10 9 0
5 -9 7 -20 4 -11 -3 -26 -1 -33 4 -13 10 -23 10 -47 0 -8 -3 -31 -8 -51 -11
-21 -4 -42 -13 -49 -21 -7 -8 -16 -12 -21 -9 -15 9 -68 -53 -62 -74 4 -17 14
-19 95 -17 l91 1 21 -35 c11 -20 20 -41 18 -48 -1 -6 2 -14 8 -18 13 -8 13
-45 0 -45 -5 0 -7 -6 -4 -14 3 -8 -8 -29 -25 -49 -30 -34 -33 -34 -108 -35
-60 -1 -80 -4 -90 -17 -18 -25 1 -49 61 -76 28 -13 54 -24 59 -25 4 -1 8 -3
10 -4 4 -5 52 -11 89 -11 36 0 74 18 113 54 58 54 30 52 569 52 l501 0 1 880
c1 484 2 886 3 893 1 18 35 7 89 -29 24 -16 47 -29 52 -29 5 0 14 -8 19 -17 6
-10 11 -14 11 -9 0 5 7 3 15 -4 13 -10 19 -10 34 4 17 16 19 33 19 168 l0 150
-32 29 c-17 15 -42 34 -56 41 -14 7 -28 17 -32 23 -4 5 -8 7 -8 3 0 -7 -8 -2
-62 45 -12 9 -28 17 -36 17 -8 0 -38 17 -66 38 -28 22 -59 38 -69 36 -21 -3
-19 -18 -21 163 -1 123 -5 156 -17 168 -12 13 -42 16 -145 16 -213 1 -203 2
-210 -26 -10 -40 -33 -47 -69 -19 -18 13 -35 21 -38 17 -4 -3 -7 -1 -7 5 0 7
-4 12 -10 12 -5 0 -33 18 -62 40 -29 21 -54 37 -56 35 -2 -2 -9 0 -16 6 -42
35 -104 77 -123 83 -13 4 -23 11 -23 16 0 5 -13 11 -29 15 -16 3 -32 13 -35
21 -3 8 -10 14 -16 14 -6 0 -16 4 -23 10 -62 50 -81 64 -84 60 -1 -3 -12 3
-23 13 -11 9 -25 17 -30 17 -5 0 -30 15 -55 33 -70 51 -144 97 -155 97 -5 0
-10 5 -10 12 0 6 -3 9 -6 5 -4 -3 -21 5 -38 18 -47 36 -78 38 -122 7z"/>
<path d="M1900 2996 c12 -15 12 -20 2 -24 -10 -3 -10 -7 0 -20 12 -15 11 -15
-4 -4 -9 8 -15 21 -12 30 3 9 -1 6 -9 -7 -10 -17 -16 -20 -19 -10 -5 12 -7 12
-19 0 -12 -12 -12 -13 0 -6 10 6 12 4 7 -4 -5 -8 -12 -9 -19 -3 -7 5 -22 8
-34 6 -13 -2 -23 0 -23 5 0 6 8 8 18 6 11 -2 19 3 19 11 0 8 -4 14 -9 14 -4 0
-8 -4 -8 -8 0 -5 -24 -9 -52 -10 -38 -2 -49 0 -38 7 12 8 10 10 -7 8 -12 0
-19 -5 -17 -9 3 -4 -2 -8 -11 -8 -10 0 -13 5 -9 13 6 8 3 8 -9 -1 -9 -8 -21
-11 -26 -8 -6 4 -8 -2 -6 -15 3 -15 0 -19 -10 -15 -8 3 -14 2 -14 -2 1 -4 0
-9 -1 -12 -9 -21 -5 -60 7 -60 12 0 18 -13 14 -34 -1 -5 4 -4 13 3 11 9 16 9
22 0 4 -8 3 -9 -4 -5 -7 4 -12 2 -12 -4 0 -7 6 -10 14 -7 7 3 19 0 26 -6 10
-9 11 -9 6 1 -5 8 -1 12 11 12 11 0 25 -6 33 -12 11 -10 11 -9 0 6 -13 17 -13
19 0 14 8 -3 23 -1 33 4 13 7 17 5 18 -9 0 -15 2 -15 7 -3 8 16 32 25 32 12 0
-5 7 -9 15 -9 11 0 12 4 4 13 -8 9 -5 11 11 7 12 -3 24 -12 27 -19 3 -8 9 -12
13 -9 5 3 6 -4 3 -16 -4 -15 -12 -20 -29 -16 -13 2 -22 1 -21 -2 1 -3 -2 -6
-8 -6 -5 0 -9 6 -9 12 1 7 -3 10 -8 7 -5 -3 -7 -13 -4 -21 5 -11 1 -14 -12
-11 -14 4 -18 0 -16 -23 2 -26 0 -28 -18 -18 -11 6 -22 8 -26 5 -3 -3 0 -6 6
-6 19 0 14 -30 -5 -31 -15 0 -15 -2 2 -9 13 -6 15 -9 5 -9 -8 -1 3 -11 25 -22
49 -26 57 -34 27 -24 -15 4 -22 3 -20 -5 2 -7 -11 -21 -29 -31 -27 -15 -33
-16 -43 -4 -13 16 -30 11 -30 -8 0 -8 3 -8 9 1 7 11 9 11 14 -1 8 -21 -48 -14
-74 9 -13 12 -19 14 -17 5 2 -8 -7 -15 -22 -17 -14 -1 -40 -5 -58 -7 -27 -4
-32 -2 -27 11 4 12 1 11 -16 -4 -12 -10 -19 -13 -15 -6 4 7 1 12 -9 12 -9 0
-14 -4 -11 -8 3 -5 -2 -9 -10 -9 -8 0 -13 6 -10 13 3 8 0 16 -6 20 -6 4 -8 3
-4 -4 6 -11 -10 -26 -29 -28 -21 -1 -45 17 -38 29 4 6 -6 2 -21 -10 -23 -19
-32 -21 -50 -11 -11 6 -25 16 -29 22 -5 7 -6 3 -3 -8 5 -14 2 -17 -10 -12 -8
3 -20 6 -25 6 -6 0 -7 6 -3 13 5 9 3 9 -7 -1 -12 -11 -12 -14 1 -22 11 -7 10
-9 -8 -7 -17 1 -21 6 -17 22 3 11 2 14 -1 7 -8 -18 -42 -34 -49 -23 -3 5 0 13
6 17 8 5 9 3 4 -6 -5 -9 -4 -11 4 -6 6 4 9 12 6 17 -9 13 -12 12 -34 -12 -14
-15 -21 -17 -26 -8 -5 8 -4 10 3 5 8 -5 10 -2 6 8 -5 13 -9 12 -24 -7 -17 -22
-23 -57 -10 -57 4 0 7 -18 6 -39 0 -22 -3 -38 -7 -36 -10 7 -7 -29 4 -43 5 -7
7 -16 3 -19 -4 -4 -11 -1 -16 7 -6 8 -10 11 -10 6 0 -5 7 -18 16 -28 13 -14
14 -21 5 -32 -8 -10 -9 -16 -1 -21 7 -4 7 -12 -1 -26 -8 -17 -7 -23 8 -34 10
-7 20 -11 22 -9 3 2 -4 11 -15 19 -17 13 -17 14 -1 15 9 0 17 5 17 11 0 5 -4
8 -8 5 -4 -2 -8 6 -8 20 0 13 4 24 9 24 4 0 5 5 2 10 -3 6 -2 10 4 10 5 0 8
-12 7 -27 -2 -16 1 -36 6 -47 7 -13 7 -16 -1 -12 -7 5 -9 -3 -4 -25 4 -21 3
-30 -4 -26 -6 4 -18 -4 -27 -18 -9 -14 -12 -25 -7 -25 5 0 12 6 15 13 4 6 4 2
2 -11 -2 -13 0 -19 6 -16 5 3 7 17 4 30 -5 18 -3 22 8 18 10 -4 12 -13 6 -32
-4 -15 -3 -37 1 -50 5 -14 5 -21 0 -17 -10 5 -7 -72 3 -82 3 -3 1 -14 -5 -24
-7 -13 -6 -19 1 -19 6 0 9 -4 6 -8 -9 -15 -14 -102 -6 -102 4 0 5 -11 2 -25
-2 -14 -8 -22 -13 -19 -5 3 -9 1 -9 -4 0 -6 7 -13 16 -16 16 -6 11 -26 -7 -26
-6 0 -7 5 -3 12 4 6 -4 3 -18 -8 -14 -10 -24 -21 -22 -23 2 -3 9 0 16 7 7 7
17 8 28 2 14 -7 16 -17 10 -53 -3 -24 -3 -54 1 -65 5 -12 4 -24 -1 -27 -8 -5
-8 -12 0 -50 1 -5 1 -12 0 -15 -7 -20 -7 -46 1 -62 5 -10 6 -18 2 -17 -20 3
-23 -2 -13 -22 9 -16 8 -24 -5 -39 -15 -17 -15 -19 2 -30 17 -11 17 -11 -2 -5
-11 4 -27 8 -35 10 -8 1 -9 0 -2 -2 7 -3 10 -9 7 -14 -4 -5 1 -9 11 -9 13 0
14 -3 4 -15 -6 -8 -8 -20 -4 -26 4 -8 3 -9 -4 -5 -8 4 -10 2 -6 -7 3 -9 14
-13 27 -11 13 2 16 1 7 -2 -33 -14 -40 -25 -29 -45 5 -11 15 -16 21 -13 7 4 8
3 4 -4 -4 -6 -12 -9 -19 -6 -7 2 -13 -4 -14 -16 -1 -11 2 -18 7 -15 4 3 6 -11
4 -30 -2 -24 1 -33 8 -29 7 5 8 2 4 -5 -5 -7 -14 -10 -22 -7 -9 3 -11 0 -7
-11 5 -12 3 -14 -7 -8 -8 5 -11 4 -6 -3 4 -6 13 -9 21 -5 10 3 15 -1 15 -12 0
-9 -4 -13 -10 -10 -5 3 -10 1 -10 -5 0 -7 7 -10 15 -7 8 4 17 2 20 -3 8 -13
25 -13 25 1 0 5 -4 8 -9 4 -5 -3 -12 -1 -15 4 -7 10 13 9 31 -2 6 -4 19 -4 30
0 16 6 17 5 3 -13 -9 -12 -4 -10 14 6 l28 25 -6 -25 c-3 -14 -3 -19 0 -12 4 9
10 10 18 3 9 -8 13 -7 13 4 0 8 -5 11 -11 8 -6 -3 -8 -2 -3 2 9 10 77 14 71 4
-2 -4 3 -10 12 -13 8 -3 13 -2 10 3 -3 5 6 9 21 9 25 0 26 -1 8 -14 -10 -8
-15 -14 -9 -14 5 0 18 7 28 15 16 12 22 12 35 2 12 -9 13 -9 7 1 -4 7 -1 12 9
12 9 0 14 -4 10 -9 -3 -5 0 -13 6 -17 8 -5 9 -3 4 6 -6 10 -4 12 9 7 11 -5 15
-3 10 5 -5 8 -2 9 10 5 10 -4 23 -4 29 0 26 16 38 12 31 -10 -6 -21 -5 -20 16
3 14 17 20 19 16 8 -3 -10 -1 -20 5 -23 5 -4 8 -1 7 6 -2 6 3 14 11 17 10 3
11 0 5 -9 -6 -11 -3 -10 11 1 10 8 16 10 12 3 -4 -6 -2 -15 4 -19 8 -4 9 -3 5
4 -4 7 -1 12 9 12 10 0 13 -5 9 -12 -4 -7 -3 -8 5 -4 6 4 9 12 6 17 -4 5 -3 9
2 10 4 0 18 2 31 3 21 3 22 2 5 -18 -16 -19 -16 -19 -1 -7 9 7 23 9 29 5 7 -4
9 -3 5 4 -3 6 -2 13 4 17 9 6 14 -7 11 -27 0 -5 4 -8 10 -8 6 0 9 6 6 14 -9
22 5 27 20 8 8 -9 12 -11 8 -4 -4 7 0 12 10 12 9 0 13 -5 9 -11 -5 -8 -1 -8
13 0 14 7 24 7 33 -2 10 -9 11 -9 6 1 -9 16 6 16 23 -1 10 -8 12 -8 7 0 -3 6
-2 14 4 18 9 6 14 -7 11 -27 0 -5 4 -8 10 -8 6 0 9 6 6 14 -9 22 5 27 20 8 8
-9 11 -11 7 -3 -5 11 -3 13 10 8 10 -4 23 -4 29 0 26 16 38 12 31 -10 -6 -21
-5 -20 16 3 14 17 20 19 16 8 -3 -10 -1 -20 5 -23 5 -4 8 -1 7 6 -2 6 3 14 11
17 10 3 11 0 5 -9 -6 -11 -3 -10 11 1 10 8 19 15 20 15 1 0 10 -7 20 -15 11
-9 16 -10 11 -2 -4 7 -1 12 9 12 9 0 14 -4 10 -9 -3 -5 0 -13 6 -17 8 -5 9 -3
4 6 -6 10 -4 12 9 7 10 -4 15 -3 11 3 -3 6 -1 10 5 10 6 0 13 -7 16 -15 5 -12
10 -10 24 8 l18 22 23 -20 c12 -11 19 -15 16 -8 -4 6 -3 14 3 18 9 6 14 -7 11
-27 0 -5 4 -8 10 -8 6 0 9 7 6 15 -4 8 -2 17 3 20 4 3 10 0 12 -7 2 -6 12 -12
21 -14 9 -1 15 2 11 7 -7 12 3 11 28 -2 13 -7 18 -7 14 -1 -3 6 -2 13 4 17 9
6 14 -8 11 -28 -1 -5 3 -6 9 -2 6 3 8 10 5 15 -3 4 2 11 11 14 8 3 12 10 9 16
-6 9 8 14 28 11 5 -1 6 3 2 9 -3 6 -11 8 -16 5 -13 -9 -11 49 3 63 7 7 8 12 4
12 -5 0 -2 8 5 18 12 15 12 16 -1 5 -10 -8 -21 -9 -30 -3 -13 8 -12 10 2 10
14 0 16 5 10 23 -13 37 -1 73 21 61 7 -3 4 1 -5 9 -14 11 -15 16 -5 27 9 10 9
11 0 6 -11 -6 -17 4 -15 25 1 3 -16 5 -36 4 -20 -1 -47 5 -59 12 -14 8 -23 9
-23 3 0 -5 6 -10 13 -10 8 0 7 -3 -3 -9 -10 -7 -3 -9 21 -7 24 2 36 -1 36 -10
0 -9 -5 -10 -19 -3 -12 6 -24 6 -37 0 -21 -12 -32 -5 -25 14 3 8 -5 19 -18 25
-21 10 -21 10 -5 -3 12 -10 15 -17 7 -22 -8 -5 -7 -12 2 -23 12 -15 11 -16 -4
-3 -10 7 -18 10 -18 6 0 -4 -7 -2 -15 5 -8 7 -15 8 -15 3 0 -5 -14 -9 -30 -9
-25 0 -29 3 -24 19 6 18 5 18 -18 3 -23 -15 -26 -15 -48 4 -26 23 -38 26 -21
7 8 -10 7 -17 -2 -27 -10 -10 -8 -12 8 -6 14 5 17 4 9 -4 -6 -6 -18 -8 -28 -4
-15 6 -15 7 0 19 16 11 16 12 0 18 -10 4 -15 3 -11 -3 3 -6 1 -10 -4 -10 -6 0
-11 6 -11 13 0 8 -3 7 -10 -3 -6 -9 -5 -17 3 -22 8 -5 6 -8 -6 -8 -13 0 -16 5
-11 24 3 14 1 27 -6 31 -9 5 -10 1 -5 -16 8 -24 8 -24 -14 -5 -18 17 -21 17
-15 3 5 -13 1 -17 -16 -17 -14 0 -19 -4 -14 -12 4 -7 4 -10 -1 -6 -4 4 -14 3
-21 -3 -11 -9 -15 -7 -20 6 -5 13 -9 14 -15 3 -7 -10 -9 -10 -9 0 0 7 -13 12
-30 12 -17 0 -33 7 -39 18 -10 16 -10 16 -11 0 0 -18 -20 -20 -32 -4 -4 6 -12
5 -21 -3 -10 -8 -17 -9 -22 -1 -3 5 -1 10 5 10 6 0 8 5 4 11 -11 18 -24 -12
-13 -32 15 -29 10 -33 -12 -8 -11 13 -18 19 -15 12 4 -6 2 -14 -4 -18 -5 -3
-10 -1 -10 4 0 6 -5 11 -11 11 -6 0 -8 -7 -5 -16 5 -12 3 -14 -6 -7 -7 5 -31
8 -53 7 -22 -1 -53 5 -70 14 l-30 15 20 -24 c11 -13 13 -19 5 -13 -22 15 -62
16 -53 1 5 -9 3 -9 -8 0 -12 9 -18 10 -27 1 -8 -8 -13 -7 -18 6 -5 14 -9 15
-15 4 -7 -10 -9 -10 -9 0 0 6 -4 12 -10 12 -5 0 -7 -8 -4 -17 5 -17 5 -17 -6
0 -6 9 -16 14 -22 11 -7 -5 -8 -2 -3 6 6 10 4 12 -8 7 -9 -3 -16 -3 -16 1 1 4
0 9 -1 12 -7 18 -6 99 1 94 5 -3 4 7 -3 21 -10 22 -9 28 3 36 8 5 9 9 4 9 -7
0 -11 30 -10 74 0 41 3 72 7 69 5 -2 8 1 8 7 0 6 5 8 12 4 7 -4 8 -3 4 4 -4 6
-14 9 -24 6 -15 -5 -15 -5 1 6 9 6 21 9 26 5 5 -3 13 0 17 6 4 8 3 9 -4 5 -7
-4 -12 -1 -12 9 0 9 -4 14 -9 11 -5 -3 -15 2 -22 12 -12 15 -12 16 1 6 9 -7
23 -8 35 -3 19 7 19 8 -2 8 -13 1 -23 5 -23 11 0 5 6 7 13 5 17 -7 13 64 -5
77 -9 7 -7 8 9 5 13 -3 25 -2 28 2 2 4 -2 8 -10 9 -8 1 -22 3 -30 4 -8 1 -12
5 -9 10 3 5 10 6 15 3 5 -4 9 3 9 15 0 12 4 19 8 16 5 -3 9 1 9 10 0 9 -7 13
-21 9 -12 -3 -15 -2 -8 1 6 3 12 10 12 15 0 6 -4 8 -9 4 -5 -3 -12 -2 -15 3
-8 13 27 11 44 -2 12 -9 13 -8 4 4 -6 8 -10 25 -9 37 1 15 -3 20 -14 16 -14
-4 -13 -3 1 9 15 13 15 15 0 26 -9 7 -11 10 -4 7 6 -3 12 -2 12 2 0 5 -6 15
-12 22 -11 11 -10 13 4 8 13 -5 16 -1 11 16 -12 53 -15 79 -7 74 5 -3 9 10 9
28 0 18 -2 32 -6 29 -4 -2 -9 3 -12 10 -4 11 0 14 16 11 20 -4 21 -3 4 9 -16
12 -14 13 15 11 18 -2 37 -4 41 -4 5 -1 5 -6 1 -13 -5 -7 -3 -8 5 -4 7 5 10
15 7 25 -5 13 -3 12 8 -2 19 -25 45 -28 81 -9 27 14 29 14 17 -1 -10 -12 -10
-17 -1 -23 8 -4 9 -3 5 4 -4 7 -4 12 1 13 4 0 20 2 36 4 15 2 25 0 22 -5 -3
-5 0 -12 6 -16 7 -4 9 -3 5 4 -3 6 -2 13 3 16 5 3 11 0 14 -8 4 -9 14 -12 26
-9 12 3 21 1 21 -5 0 -18 37 -34 46 -20 5 7 3 8 -6 3 -9 -6 -11 -4 -5 5 6 10
13 8 28 -11 12 -14 18 -17 14 -7 -3 10 1 22 11 30 15 12 16 11 3 -4 -7 -10
-11 -19 -7 -19 3 -1 10 -2 15 -3 5 0 13 -5 18 -10 5 -5 3 -6 -4 -2 -7 4 -13 3
-13 -2 0 -6 7 -12 15 -16 8 -3 14 -2 14 2 -3 18 2 32 11 32 6 0 9 -3 9 -7 -3
-19 2 -33 11 -33 6 0 9 3 9 8 -4 22 3 24 16 5 10 -14 22 -20 31 -16 13 5 13 8
2 15 -9 7 -8 8 5 4 10 -3 21 -6 23 -6 3 0 2 -6 -1 -12 -4 -7 1 -4 9 6 14 17
16 18 16 3 0 -9 4 -17 10 -17 5 0 7 7 4 15 -5 11 -2 13 10 9 9 -3 13 -11 9
-17 -3 -6 4 -3 16 6 13 8 30 13 37 10 8 -3 14 0 14 6 0 6 -5 11 -12 11 -6 0
-8 3 -4 7 4 5 14 -1 22 -11 13 -18 14 -18 14 -2 0 9 5 14 10 11 6 -4 7 -11 4
-17 -4 -7 -2 -8 4 -4 6 4 9 13 5 21 -3 9 1 15 8 15 7 0 24 10 38 23 14 12 23
18 19 13 -9 -11 38 -49 51 -42 5 4 12 0 14 -6 4 -10 6 -10 6 0 1 19 -3 26 -17
28 -6 1 -10 -2 -6 -7 3 -5 1 -9 -5 -9 -15 0 -24 20 -9 21 7 0 4 4 -7 9 -16 7
-17 9 -3 9 9 1 20 -4 23 -9 4 -6 10 -8 15 -5 5 3 18 -4 29 -16 l20 -21 -5 23
c-2 13 -1 17 2 9 4 -8 15 -21 26 -28 10 -7 18 -22 18 -32 0 -10 5 -22 10 -25
6 -4 8 -11 4 -16 -9 -14 -33 23 -31 46 2 15 -5 20 -24 20 -14 1 -26 -5 -26
-12 0 -6 3 -10 7 -8 4 2 17 -6 29 -19 15 -16 19 -25 10 -28 -15 -5 -21 -38 -7
-38 6 0 8 7 4 15 -3 8 0 15 7 15 25 0 38 -17 33 -43 -3 -16 2 -34 15 -48 10
-12 19 -17 19 -11 0 7 7 12 15 12 8 0 15 -6 15 -12 0 -9 3 -10 8 -2 4 6 21 12
37 13 65 4 84 7 92 15 4 5 2 6 -4 2 -8 -4 -13 -2 -13 6 0 9 -3 9 -10 -2 -6
-10 -8 -2 -7 28 2 24 0 45 -4 48 -4 2 -5 13 -2 24 3 12 0 20 -7 20 -10 0 -10
3 0 15 9 10 9 15 1 15 -6 0 -11 8 -11 18 0 10 -6 24 -12 31 -7 8 -8 11 -3 8 6
-3 16 3 23 13 9 15 8 19 -4 24 -23 9 -31 7 -14 -4 8 -5 11 -12 6 -17 -7 -7
-32 26 -28 37 4 9 37 5 45 -5 5 -6 7 -4 4 5 -2 8 -11 14 -20 12 -11 -2 -15 4
-13 22 2 14 0 23 -4 21 -11 -7 -31 20 -22 30 4 5 2 5 -4 2 -7 -4 -14 -1 -17 7
-3 9 -15 12 -31 9 -15 -3 -26 -1 -26 6 0 5 6 8 14 5 8 -3 17 -1 21 5 4 7 0 8
-11 4 -13 -5 -15 -3 -9 8 5 8 -2 5 -15 -6 -13 -11 -20 -14 -16 -7 5 8 0 11
-16 8 -24 -3 -68 12 -68 24 0 4 -12 12 -27 19 -24 11 -25 11 -12 -5 13 -16 12
-16 -7 -6 -12 6 -24 8 -28 5 -3 -3 -6 -1 -6 5 0 7 5 12 10 12 6 0 10 5 10 12
0 9 -3 9 -12 0 -16 -16 -29 -15 -26 1 2 6 -6 12 -17 12 -14 0 -19 6 -17 20 4
20 3 20 -12 0 -12 -16 -15 -17 -16 -4 0 8 5 20 12 27 9 9 9 12 0 12 -7 0 -12
-4 -12 -9 0 -6 -8 -9 -18 -8 -10 0 -19 6 -19 13 0 6 7 11 16 10 10 -1 15 6 15
17 -2 13 1 15 10 7 10 -7 16 -3 25 16 7 17 8 23 0 19 -6 -4 -10 -1 -8 6 3 26
-1 37 -17 43 -8 3 -12 2 -9 -4 3 -6 1 -10 -6 -10 -6 0 -9 8 -6 20 6 23 -34 53
-41 31 -6 -18 -23 -13 -20 6 2 13 -4 18 -26 18 -19 1 -30 6 -32 18 -1 9 1 16
4 16 19 -3 33 2 28 10 -3 4 6 6 21 3 15 -3 24 -1 20 5 -3 5 0 10 8 10 10 0 12
-4 5 -12 -5 -6 -5 -16 0 -25 8 -13 10 -12 10 2 0 10 7 16 19 15 11 0 18 -4 15
-8 -2 -4 5 -9 15 -12 15 -4 18 -1 13 12 -5 14 -4 14 11 2 9 -7 14 -18 10 -25
-4 -7 -1 -7 7 1 11 10 11 15 -1 30 -12 16 -11 16 8 -1 13 -10 21 -22 18 -26
-2 -4 2 -7 10 -7 8 0 12 3 10 7 -2 3 10 12 26 19 16 7 26 17 23 23 -5 7 -2 8
6 3 10 -6 12 -4 6 10 -5 14 -4 16 7 7 10 -9 14 -8 14 3 0 8 -4 15 -9 15 -4 0
-8 5 -8 11 0 5 4 8 8 5 5 -3 9 1 9 9 0 8 -4 12 -9 9 -4 -3 -8 0 -8 6 0 6 -4 8
-10 5 -5 -3 -10 1 -10 9 0 9 -6 16 -12 17 -32 3 -74 -4 -85 -13 -9 -7 -14 -6
-18 3 -3 8 -19 14 -35 15 -25 1 -27 -1 -14 -10 13 -10 13 -12 -5 -12 -12 0
-21 7 -22 16 0 9 -4 6 -9 -7 -11 -27 -18 -30 -16 -7 0 9 -6 19 -14 21 -10 3
-11 2 -3 -4 8 -6 9 -14 3 -23 -7 -11 -10 -12 -10 -2 0 7 -4 11 -9 7 -5 -3 -16
4 -25 16 -9 14 -21 19 -31 15 -11 -4 -14 -2 -9 6 5 7 2 9 -8 5 -9 -3 -22 0
-29 6 -8 8 -8 5 1 -7z m-290 -76 c0 -5 -5 -10 -11 -10 -5 0 -7 5 -4 10 3 6 8
10 11 10 2 0 4 -4 4 -10z m215 -40 c3 -5 1 -10 -4 -10 -6 0 -11 5 -11 10 0 6
2 10 4 10 3 0 8 -4 11 -10z m-80 -19 c3 -5 2 -12 -3 -15 -5 -3 -9 1 -9 9 0 17
3 19 12 6z m465 -15 c0 -3 -4 -8 -10 -11 -5 -3 -10 -1 -10 4 0 6 5 11 10 11 6
0 10 -2 10 -4z m-188 -65 c-4 -10 -7 -11 -10 -3 -3 9 -9 9 -25 1 -20 -9 -20
-9 -5 4 23 19 48 18 40 -2z m68 -16 c0 -2 -6 -5 -13 -8 -8 -3 -14 1 -14 8 0 7
6 11 14 8 7 -3 13 -6 13 -8z m35 -45 c3 -5 1 -10 -4 -10 -6 0 -11 5 -11 10 0
6 2 10 4 10 3 0 8 -4 11 -10z m-1052 -157 c-5 -12 -3 -14 7 -8 9 6 11 4 5 -4
-5 -9 -11 -9 -17 -3 -6 6 -7 15 -4 21 11 17 16 13 9 -6z m547 1 c0 -8 -19 -13
-24 -6 -3 5 1 9 9 9 8 0 15 -2 15 -3z m550 2 c0 -3 -4 -8 -10 -11 -5 -3 -10
-1 -10 4 0 6 5 11 10 11 6 0 10 -2 10 -4z m-1075 -86 c3 -6 -1 -7 -9 -4 -18 7
-21 14 -7 14 6 0 13 -4 16 -10z m1328 -55 c-5 -18 -4 -19 12 -5 11 8 16 10 12
4 -4 -7 1 -15 10 -18 15 -6 15 -8 3 -16 -21 -13 -52 18 -44 43 3 11 2 17 -3
14 -5 -3 -15 -1 -23 5 -12 8 -12 9 3 4 10 -3 17 0 17 7 0 8 4 6 10 -3 5 -8 7
-24 3 -35z m-1330 -19 c3 -8 0 -16 -6 -19 -7 -3 -13 3 -13 14 0 22 12 25 19 5z
m432 -88 c5 4 5 2 2 -5 -6 -9 -18 -10 -45 -4 -2 1 0 6 3 11 5 8 11 8 19 1 7
-6 17 -7 21 -3z m202 -28 c-1 -11 -5 -20 -9 -20 -10 0 -10 4 -2 24 8 22 13 20
11 -4z m299 -35 c-1 -8 -5 -17 -8 -21 -5 -4 -4 16 1 34 3 9 9 -1 7 -13z m-122
-21 c3 -8 2 -12 -4 -9 -6 3 -10 10 -10 16 0 14 7 11 14 -7z m406 6 c0 -5 -4
-10 -10 -10 -5 0 -10 5 -10 10 0 6 5 10 10 10 6 0 10 -4 10 -10z m-960 -200
c0 -5 -2 -10 -4 -10 -3 0 -8 5 -11 10 -3 6 -1 10 4 10 6 0 11 -4 11 -10z m430
-661 c0 -5 -7 -9 -15 -9 -15 0 -20 12 -9 23 8 8 24 -1 24 -14z m631 -2 c-13
-13 -26 -3 -16 12 3 6 11 8 17 5 6 -4 6 -10 -1 -17z m-577 4 c3 -3 -6 -8 -20
-9 -13 -1 -24 2 -24 6 0 10 38 13 44 3z m170 1 c2 -4 -5 -9 -17 -9 -17 -2 -19
0 -7 7 18 12 18 12 24 2z m-129 -12 c3 -6 -1 -7 -9 -4 -18 7 -21 14 -7 14 6 0
13 -4 16 -10z m-775 -4 c0 -3 -4 -8 -10 -11 -5 -3 -10 -1 -10 4 0 6 5 11 10
11 6 0 10 -2 10 -4z m1327 -17 c2 -16 -1 -19 -9 -11 -5 5 -7 15 -4 21 10 15
12 14 13 -10z m-19 -34 c-3 -3 -9 2 -12 12 -6 14 -5 15 5 6 7 -7 10 -15 7 -18z
m26 -106 c-3 -5 -10 -7 -15 -3 -5 3 -7 10 -3 15 3 5 10 7 15 3 5 -3 7 -10 3
-15z m-828 -89 c0 -12 -4 -16 -9 -11 -5 5 -6 14 -3 20 10 15 12 14 12 -9z
m477 5 c-3 -9 -8 -14 -10 -11 -3 3 -2 9 2 15 9 16 15 13 8 -4z m-738 -13 c-3
-3 -11 0 -18 7 -9 10 -8 11 6 5 10 -3 15 -9 12 -12z"/>
<path d="M1980 2981 c0 -6 4 -13 10 -16 6 -3 7 1 4 9 -7 18 -14 21 -14 7z"/>
<path d="M2150 2980 c-8 -5 -12 -12 -9 -15 4 -3 12 1 19 10 14 17 11 19 -10 5z"/>
<path d="M2188 2983 c7 -3 16 -2 19 1 4 3 -2 6 -13 5 -11 0 -14 -3 -6 -6z"/>
<path d="M1850 2821 c0 -6 4 -13 10 -16 6 -3 7 1 4 9 -7 18 -14 21 -14 7z"/>
<path d="M1986 2821 c-4 -5 3 -7 14 -4 23 6 26 13 6 13 -8 0 -17 -4 -20 -9z"/>
<path d="M1740 2640 c5 -9 6 -20 2 -24 -3 -4 2 -4 13 0 11 5 14 9 7 12 -7 2
-12 8 -12 13 0 6 6 7 13 3 6 -4 8 -3 4 1 -4 5 -14 10 -22 11 -11 2 -12 -2 -5
-16z"/>
<path d="M1279 2598 c14 -19 32 -15 30 5 0 8 -2 8 -6 -1 -4 -10 -8 -10 -21 0
-15 12 -16 11 -3 -4z"/>
<path d="M1386 2597 c3 -10 9 -15 12 -12 3 3 0 11 -7 18 -10 9 -11 8 -5 -6z"/>
<path d="M1545 2600 c-3 -5 -12 -7 -20 -3 -8 3 -15 1 -15 -5 0 -13 27 -9 42 6
7 7 9 12 6 12 -4 0 -9 -4 -13 -10z"/>
<path d="M1640 2601 c0 -6 4 -13 10 -16 6 -3 7 1 4 9 -7 18 -14 21 -14 7z"/>
<path d="M1710 2599 c0 -5 5 -7 10 -4 6 3 10 8 10 11 0 2 -4 4 -10 4 -5 0 -10
-5 -10 -11z"/>
<path d="M2304 2512 c4 -3 14 -7 22 -8 9 -1 13 0 10 4 -4 3 -14 7 -22 8 -9 1
-13 0 -10 -4z"/>
<path d="M2506 2314 c-9 -24 -7 -31 5 -11 6 9 15 14 21 11 7 -4 8 -2 4 4 -10
17 -23 15 -30 -4z"/>
<path d="M2517 2287 c-3 -8 -2 -20 3 -26 5 -9 8 -4 8 13 0 29 -3 32 -11 13z"/>
<path d="M2147 2272 c-15 -17 -15 -18 3 -19 11 -1 20 3 20 8 0 6 6 7 13 3 8
-5 8 -2 -2 9 -16 21 -14 21 -34 -1z"/>
<path d="M1041 2248 c-1 -20 14 -24 25 -6 4 6 3 8 -4 4 -5 -3 -13 0 -15 6 -3
8 -6 6 -6 -4z"/>
<path d="M2275 2200 c-3 -5 -1 -10 4 -10 6 0 11 5 11 10 0 6 -2 10 -4 10 -3 0
-8 -4 -11 -10z"/>
<path d="M2533 2171 c0 -11 5 -18 9 -15 4 3 5 11 1 19 -7 21 -12 19 -10 -4z"/>
<path d="M2559 2153 c-1 -5 -1 -12 0 -17 1 -5 -5 -6 -14 -3 -21 9 -19 0 3 -12
15 -8 18 -6 18 15 0 22 -5 33 -7 17z"/>
<path d="M2308 2133 c7 -3 16 -2 19 1 4 3 -2 6 -13 5 -11 0 -14 -3 -6 -6z"/>
<path d="M1056 2115 c4 -8 8 -15 10 -15 2 0 4 7 4 15 0 8 -4 15 -10 15 -5 0
-7 -7 -4 -15z"/>
<path d="M2290 2105 c0 -5 5 -17 10 -25 5 -8 10 -10 10 -5 0 6 -5 17 -10 25
-5 8 -10 11 -10 5z"/>
<path d="M1046 2067 c3 -10 9 -15 12 -12 3 3 0 11 -7 18 -10 9 -11 8 -5 -6z"/>
<path d="M2437 2069 c7 -7 15 -10 18 -7 3 3 -2 9 -12 12 -14 6 -15 5 -6 -5z"/>
<path d="M2510 2070 c-9 -6 -10 -10 -3 -10 6 0 15 5 18 10 8 12 4 12 -15 0z"/>
<path d="M2315 2060 c-3 -5 -1 -10 4 -10 6 0 11 5 11 10 0 6 -2 10 -4 10 -3 0
-8 -4 -11 -10z"/>
<path d="M2535 2060 c-3 -6 1 -7 9 -4 18 7 21 14 7 14 -6 0 -13 -4 -16 -10z"/>
<path d="M2368 2049 c-5 -12 1 -15 23 -14 16 1 32 5 36 10 5 4 2 5 -4 1 -8 -4
-13 -2 -13 5 0 9 -3 9 -14 0 -11 -9 -15 -9 -18 1 -3 8 -6 8 -10 -3z"/>
<path d="M2445 2040 c-3 -6 1 -7 9 -4 18 7 21 14 7 14 -6 0 -13 -4 -16 -10z"/>
<path d="M2490 2039 c0 -5 5 -7 10 -4 6 3 10 8 10 11 0 2 -4 4 -10 4 -5 0 -10
-5 -10 -11z"/>
<path d="M1050 2000 c0 -5 5 -10 10 -10 6 0 10 5 10 10 0 6 -4 10 -10 10 -5 0
-10 -4 -10 -10z"/>
<path d="M1040 1922 c0 -12 22 -32 35 -32 5 0 2 5 -8 11 -9 6 -15 14 -12 20 4
5 1 9 -4 9 -6 0 -11 -4 -11 -8z"/>
<path d="M1045 1863 c6 -4 10 -15 10 -23 0 -8 -4 -19 -10 -23 -6 -5 -4 -7 5
-5 8 3 14 15 14 28 0 13 -6 25 -14 28 -9 2 -11 0 -5 -5z"/>
<path d="M1074 1768 c3 -10 1 -20 -4 -23 -5 -3 -11 3 -13 12 -4 16 -5 16 -6 1
-1 -21 11 -29 28 -19 11 7 11 13 1 27 -9 16 -11 16 -6 2z"/>
<path d="M1050 1718 c5 -7 6 -18 0 -29 -7 -13 -4 -21 15 -33 13 -9 26 -12 30
-7 3 5 1 12 -5 16 -6 4 -7 12 -4 18 5 8 3 8 -7 0 -20 -20 -31 -15 -17 6 7 11
15 18 18 16 4 -2 7 2 7 10 0 10 -4 12 -12 5 -7 -6 -16 -6 -23 0 -9 7 -9 7 -2
-2z"/>
<path d="M1380 1719 c0 -5 5 -7 10 -4 6 3 10 8 10 11 0 2 -4 4 -10 4 -5 0 -10
-5 -10 -11z"/>
<path d="M1349 1708 c-6 -21 -5 -38 2 -38 5 0 9 -5 9 -11 0 -5 -6 -7 -12 -3
-8 5 -8 1 2 -12 8 -10 16 -21 17 -23 2 -2 1 10 -1 28 -2 22 1 34 11 38 12 5
12 7 1 14 -13 8 -27 12 -29 7z"/>
<path d="M1050 1640 c8 -5 11 -10 6 -10 -5 0 -3 -7 4 -15 10 -12 10 -18 -1
-32 -10 -11 -10 -14 -1 -9 7 4 12 1 12 -8 0 -10 -6 -13 -17 -10 -17 5 -17 5 0
-6 9 -6 14 -16 11 -22 -4 -7 -2 -8 4 -4 7 4 12 2 12 -3 0 -6 -4 -11 -10 -11
-5 0 -14 -9 -20 -20 -8 -15 -8 -20 1 -18 6 2 14 -3 17 -11 2 -8 0 -11 -5 -8
-5 3 -10 0 -10 -8 0 -19 11 -19 28 1 10 12 10 17 0 23 -14 9 -14 20 1 39 7 8
7 17 -2 27 -10 12 -10 15 0 15 8 0 10 3 7 7 -4 3 -2 12 3 19 8 8 6 17 -5 28
-11 11 -13 16 -4 16 7 0 4 6 -7 15 -10 8 -23 14 -29 15 -5 0 -3 -5 5 -10z"/>
<path d="M1035 1600 c-3 -5 -1 -10 4 -10 6 0 11 5 11 10 0 6 -2 10 -4 10 -3 0
-8 -4 -11 -10z"/>
<path d="M1370 1600 c0 -5 5 -10 10 -10 6 0 10 5 10 10 0 6 -4 10 -10 10 -5 0
-10 -4 -10 -10z"/>
<path d="M1360 1573 c0 -6 4 -14 9 -18 5 -3 8 -16 5 -30 -2 -13 0 -26 6 -30 6
-4 7 1 3 11 -5 13 -3 15 7 9 10 -6 11 -4 4 6 -5 8 -9 16 -9 19 -1 12 -24 44
-25 33z"/>
<path d="M1350 1479 c0 -5 4 -8 9 -5 5 3 12 -1 15 -10 4 -9 9 -14 13 -11 7 8
-15 37 -28 37 -5 0 -9 -5 -9 -11z"/>
<path d="M1356 1439 c19 -22 19 -22 -1 -16 -16 6 -15 3 5 -12 14 -11 27 -17
30 -15 2 3 -1 9 -9 13 -7 5 -12 11 -12 15 3 18 -1 24 -16 30 -14 6 -14 3 3
-15z"/>
<path d="M1530 1421 c0 -5 5 -13 10 -16 6 -3 10 -2 10 4 0 5 -4 13 -10 16 -5
3 -10 2 -10 -4z"/>
<path d="M1634 1416 c-3 -9 -15 -13 -30 -10 -13 2 -24 0 -24 -6 0 -6 -5 -8
-12 -4 -7 4 -8 3 -4 -5 6 -8 12 -9 20 -2 7 6 16 8 20 4 3 -4 17 -8 29 -9 12
-2 16 0 10 2 -9 4 -10 11 -3 25 6 10 8 19 5 19 -3 0 -8 -6 -11 -14z"/>
<path d="M1690 1420 c0 -6 -4 -8 -10 -5 -5 3 -10 1 -10 -5 0 -6 -5 -8 -12 -4
-7 4 -8 3 -4 -4 5 -9 13 -9 29 -1 30 16 30 16 18 24 -6 3 -11 1 -11 -5z"/>
<path d="M1830 1422 c0 -6 9 -12 20 -15 11 -3 20 -3 20 -1 0 2 -9 8 -20 14
-11 6 -20 7 -20 2z"/>
<path d="M2197 1423 c-11 -10 -8 -43 3 -43 6 0 10 4 10 9 0 10 19 9 37 -2 6
-4 14 -3 18 2 3 6 -4 15 -15 21 -11 6 -20 7 -20 2 0 -5 -7 -9 -15 -9 -9 0 -14
6 -11 14 6 14 3 17 -7 6z"/>
<path d="M2127 1405 c3 -8 9 -12 14 -9 12 7 11 11 -5 17 -10 4 -13 1 -9 -8z"/>
<path d="M1405 1400 c3 -5 8 -10 11 -10 2 0 4 5 4 10 0 6 -5 10 -11 10 -5 0
-7 -4 -4 -10z"/>
<path d="M1430 1400 c0 -5 5 -10 11 -10 5 0 7 -5 3 -12 -5 -7 -3 -8 7 -2 8 5
18 9 23 9 5 0 11 6 14 13 2 6 -3 12 -11 12 -9 0 -18 -6 -20 -12 -4 -10 -6 -10
-6 0 -1 14 -21 17 -21 2z"/>
<path d="M1885 1400 c3 -5 8 -10 11 -10 2 0 4 5 4 10 0 6 -5 10 -11 10 -5 0
-7 -4 -4 -10z"/>
<path d="M1910 1400 c0 -5 5 -10 11 -10 5 0 7 -5 3 -12 -4 -6 4 -3 18 8 15 10
22 21 16 23 -6 2 -14 -3 -19 -10 -6 -10 -9 -11 -9 -1 0 6 -4 12 -10 12 -5 0
-10 -4 -10 -10z"/>
<path d="M1035 1320 c3 -5 8 -10 11 -10 2 0 4 5 4 10 0 6 -5 10 -11 10 -5 0
-7 -4 -4 -10z"/>
<path d="M2434 1306 c1 -8 5 -18 8 -22 4 -3 5 1 4 10 -1 8 -5 18 -8 22 -4 3
-5 -1 -4 -10z"/>
<path d="M1043 1191 c0 -11 5 -18 9 -15 4 3 5 11 1 19 -7 21 -12 19 -10 -4z"/>
<path d="M1234 1088 c-4 -7 -4 -10 1 -6 4 4 15 2 24 -5 14 -11 14 -10 2 6 -16
20 -18 21 -27 5z"/>
<path d="M2213 1085 c0 -8 4 -12 9 -9 4 3 8 9 8 15 0 5 -4 9 -8 9 -5 0 -9 -7
-9 -15z"/>
<path d="M2066 1078 c3 -5 10 -6 15 -3 13 9 11 12 -6 12 -8 0 -12 -4 -9 -9z"/>
</g>
</svg>
